<svg xmlns="http://www.w3.org/2000/svg" id="Layer_1" x="0" y="0" version="1.1" viewBox="0 0 120 120" xml:space="preserve"><style>.st3{fill:#eee}.st12{fill:#263238}</style><g id="Reporting"><circle id="back_x5F_circle_42_" cx="60" cy="60" r="50" fill="#f0f0f0" stroke="#777" stroke-dasharray="1,4" stroke-linecap="square" stroke-width="2"/><g id="pic_38_"><path fill="#9c80ba" stroke="#212121" stroke-linecap="square" stroke-width="1.5" d="M82 95H38c-2.8 0-5-2.2-5-5V30c0-2.8 2.2-5 5-5h44c2.8 0 5 2.2 5 5v60c0 2.8-2.2 5-5 5z"/><path fill="#78629b" stroke="#78629b" stroke-width="1.5" d="M81.2 91H38.8c-1.6 0-2.8-1.3-2.8-2.8V30.8c0-1.6 1.3-2.8 2.8-2.8h42.3c1.6 0 2.8 1.3 2.8 2.8v57.3c.1 1.6-1.2 2.9-2.7 2.9z"/><g id="copy_3_"><path id="page_10_" d="M81 29c1.1 0 2 .9 2 2v48L73 89H39c-1.1 0-2-.9-2-2V31c0-1.1.9-2 2-2h42z" class="st3"/><path id="corner_6_" fill="silver" stroke="#212121" stroke-miterlimit="10" stroke-width="1.5" d="M72 89v-8.6c0-1.4 1.1-2.4 2.4-2.4H83"/><path id="page_9_" fill="none" stroke="#212121" stroke-linecap="round" stroke-linejoin="round" stroke-miterlimit="10" stroke-width="1.5" d="M81 29c1.1 0 2 .9 2 2v48L73 89H39c-1.1 0-2-.9-2-2V31c0-1.1.9-2 2-2h42z"/></g><path fill="#f9a825" stroke="#212121" stroke-linecap="round" stroke-linejoin="round" stroke-width="1.5" d="M64.9 23c.1-.3.1-.7.1-1 0-2.8-2.2-5-5-5s-5 2.2-5 5c0 .3 0 .7.1 1H51v8h18v-8h-4.1z"/><path fill="#f57c00" d="M51 27h18v4H51z"/><path fill="none" stroke="#212121" stroke-linecap="round" stroke-linejoin="round" stroke-width="1.5" d="M64.9 23c.1-.3.1-.7.1-1 0-2.8-2.2-5-5-5s-5 2.2-5 5c0 .3 0 .7.1 1H51v8h18v-8h-4.1z"/><circle cx="60" cy="22" r="2" fill="#f0f0f0" stroke="#212121" stroke-linecap="round" stroke-linejoin="round" stroke-width="1.5"/><circle cx="60" cy="54" r="10" fill="#e0e0e0" stroke="#212121" stroke-width="1.5"/><path fill="#66bb6a" stroke="#212121" stroke-linejoin="round" stroke-width="1.5" d="M69.9 44.7L60.5 54l-4.4-4.3-3.1 3.1 4.4 4.4 3.1 3.1 3.1-3.1 9.4-9.4z"/><path id="headline_8_" d="M51 36h18v3H51z" class="st12"/><path id="headline_6_" d="M42 69h36v2H42z" class="st12"/><path id="headline_7_" d="M42 73h36v2H42z" class="st12"/><path id="headline_3_" d="M42 77h27v2H42z" class="st12"/><path id="headline_4_" d="M42 81h27v2H42z" class="st12"/><path d="M45 68h2v16h-2zM54 35h2v5h-2z" class="st3"/></g></g></svg>